G04 #@! TF.GenerationSoftware,KiCad,Pcbnew,8.0.5*
G04 #@! TF.CreationDate,2024-10-13T19:50:00+02:00*
G04 #@! TF.ProjectId,corne-backplate,636f726e-652d-4626-9163-6b706c617465,2.0*
G04 #@! TF.SameCoordinates,Original*
G04 #@! TF.FileFunction,Legend,Top*
G04 #@! TF.FilePolarity,Positive*
%FSLAX46Y46*%
G04 Gerber Fmt 4.6, Leading zero omitted, Abs format (unit mm)*
G04 Created by KiCad (PCBNEW 8.0.5) date 2024-10-13 19:50:00*
%MOMM*%
%LPD*%
G01*
G04 APERTURE LIST*
%ADD10C,0.000000*%
%ADD11C,0.010000*%
G04 APERTURE END LIST*
D10*
G36*
X91387161Y-94783295D02*
G01*
X91419998Y-94866166D01*
X91397285Y-95015904D01*
X91375855Y-95196022D01*
X91436230Y-95265242D01*
X91573791Y-95275666D01*
X91740821Y-95320235D01*
X91783451Y-95421316D01*
X91709770Y-95529968D01*
X91527867Y-95597252D01*
X91520484Y-95598159D01*
X91321030Y-95681086D01*
X91208113Y-95873325D01*
X91099989Y-96065268D01*
X90981101Y-96130296D01*
X90892362Y-96069023D01*
X90874684Y-95882068D01*
X90876560Y-95868333D01*
X90885973Y-95690293D01*
X90811333Y-95623475D01*
X90668294Y-95614333D01*
X90485834Y-95574158D01*
X90433917Y-95481152D01*
X90502311Y-95376596D01*
X90680787Y-95301770D01*
X90748216Y-95291852D01*
X90943929Y-95245862D01*
X91027664Y-95128461D01*
X91043856Y-95037852D01*
X91116590Y-94848100D01*
X91259702Y-94783071D01*
X91387161Y-94783295D01*
G37*
G36*
X68562368Y-88835850D02*
G01*
X69255712Y-89003651D01*
X69900787Y-89302159D01*
X70474799Y-89719325D01*
X70954950Y-90243100D01*
X71318444Y-90861432D01*
X71459004Y-91232999D01*
X71614292Y-91995794D01*
X71611812Y-92742503D01*
X71459663Y-93453650D01*
X71165946Y-94109756D01*
X70738760Y-94691347D01*
X70186204Y-95178944D01*
X69697029Y-95469941D01*
X69381991Y-95619173D01*
X69130152Y-95714601D01*
X68882209Y-95769739D01*
X68578861Y-95798104D01*
X68194718Y-95812308D01*
X67774227Y-95818007D01*
X67468514Y-95803465D01*
X67222942Y-95761236D01*
X66982876Y-95683875D01*
X66844574Y-95628333D01*
X66234526Y-95325631D01*
X65748295Y-94968986D01*
X65341083Y-94525265D01*
X65325325Y-94504603D01*
X64933988Y-93859727D01*
X64693858Y-93177603D01*
X64613420Y-92589878D01*
X64769906Y-92589878D01*
X64875751Y-93222956D01*
X65096551Y-93826634D01*
X65430229Y-94381342D01*
X65874706Y-94867509D01*
X66427904Y-95265563D01*
X67087746Y-95555934D01*
X67340259Y-95627703D01*
X67817965Y-95718940D01*
X68245562Y-95729489D01*
X68720229Y-95661091D01*
X68758987Y-95653130D01*
X69441170Y-95427784D01*
X70071989Y-95059196D01*
X70619859Y-94572305D01*
X71053195Y-93992049D01*
X71190181Y-93733463D01*
X71293331Y-93496652D01*
X71359851Y-93281476D01*
X71397560Y-93039307D01*
X71414281Y-92721517D01*
X71417851Y-92318000D01*
X71414242Y-91893739D01*
X71397795Y-91590148D01*
X71360081Y-91358621D01*
X71292669Y-91150552D01*
X71187129Y-90917334D01*
X71168220Y-90878667D01*
X70812267Y-90318657D01*
X70336022Y-89808221D01*
X69789090Y-89396801D01*
X69548955Y-89264799D01*
X69307275Y-89153422D01*
X69097878Y-89081261D01*
X68871995Y-89039913D01*
X68580856Y-89020977D01*
X68175693Y-89016050D01*
X68104807Y-89016000D01*
X67681328Y-89019371D01*
X67379454Y-89035160D01*
X67150937Y-89071880D01*
X66947529Y-89138044D01*
X66720981Y-89242165D01*
X66665255Y-89270000D01*
X66037734Y-89668483D01*
X65537635Y-90154993D01*
X65162880Y-90709958D01*
X64911393Y-91313808D01*
X64781094Y-91946972D01*
X64769906Y-92589878D01*
X64613420Y-92589878D01*
X64598239Y-92478961D01*
X64640437Y-91784531D01*
X64813759Y-91115044D01*
X65111508Y-90491231D01*
X65526992Y-89933823D01*
X66053516Y-89463549D01*
X66684386Y-89101140D01*
X67122065Y-88940572D01*
X67843554Y-88810808D01*
X68562368Y-88835850D01*
G37*
G36*
X74487746Y-90505543D02*
G01*
X74684282Y-90531651D01*
X74754323Y-90579705D01*
X74752557Y-90603500D01*
X74649512Y-90699514D01*
X74533103Y-90736388D01*
X74386328Y-90780300D01*
X74346649Y-90821055D01*
X74333762Y-90920587D01*
X74299509Y-91157332D01*
X74248354Y-91501138D01*
X74184764Y-91921856D01*
X74145833Y-92176897D01*
X73946988Y-93475128D01*
X74147804Y-93566321D01*
X74314724Y-93664349D01*
X74320372Y-93734989D01*
X74162636Y-93779370D01*
X73839406Y-93798622D01*
X73711496Y-93799667D01*
X73398247Y-93789428D01*
X73173656Y-93762023D01*
X73075800Y-93722413D01*
X73074373Y-93716613D01*
X73146221Y-93635346D01*
X73277148Y-93582835D01*
X73369747Y-93546627D01*
X73437978Y-93471489D01*
X73493186Y-93326184D01*
X73546714Y-93079472D01*
X73609906Y-92700115D01*
X73619194Y-92640889D01*
X73684459Y-92207420D01*
X73745124Y-91776714D01*
X73792310Y-91413056D01*
X73809464Y-91263349D01*
X73832699Y-90987010D01*
X73821258Y-90834215D01*
X73764421Y-90760865D01*
X73679793Y-90729942D01*
X73536269Y-90656018D01*
X73499122Y-90590260D01*
X73581106Y-90538487D01*
X73817148Y-90506962D01*
X74143325Y-90497667D01*
X74487746Y-90505543D01*
G37*
G36*
X76158760Y-90507276D02*
G01*
X76327156Y-90538920D01*
X76368423Y-90596819D01*
X76366604Y-90603500D01*
X76263461Y-90699992D01*
X76149977Y-90736019D01*
X76014877Y-90807563D01*
X75803950Y-90977151D01*
X75552618Y-91214847D01*
X75420127Y-91352832D01*
X74871932Y-91942959D01*
X75248405Y-92553813D01*
X75525589Y-92978198D01*
X75775093Y-93311360D01*
X75981200Y-93534422D01*
X76128192Y-93628508D01*
X76144781Y-93630333D01*
X76188792Y-93682628D01*
X76175042Y-93715000D01*
X76042904Y-93787759D01*
X75818391Y-93802705D01*
X75566497Y-93765843D01*
X75352220Y-93683181D01*
X75285538Y-93632794D01*
X75159286Y-93469636D01*
X74999353Y-93213162D01*
X74864505Y-92965212D01*
X74711544Y-92683272D01*
X74566339Y-92448827D01*
X74472441Y-92326503D01*
X74410868Y-92246200D01*
X74411315Y-92156768D01*
X74489321Y-92024092D01*
X74660429Y-91814059D01*
X74756529Y-91702918D01*
X74988873Y-91441815D01*
X75201929Y-91212499D01*
X75351852Y-91062086D01*
X75358499Y-91056044D01*
X75509557Y-90885658D01*
X75517159Y-90781017D01*
X75410493Y-90751667D01*
X75297869Y-90683894D01*
X75283068Y-90624667D01*
X75319592Y-90553820D01*
X75450250Y-90514238D01*
X75706670Y-90498737D01*
X75842321Y-90497667D01*
X76158760Y-90507276D01*
G37*
G36*
X78425047Y-90581170D02*
G01*
X78917059Y-90693160D01*
X79277372Y-90887298D01*
X79518236Y-91171346D01*
X79651898Y-91553065D01*
X79678673Y-91740808D01*
X79661107Y-92316687D01*
X79495706Y-92819978D01*
X79189219Y-93237657D01*
X78748392Y-93556697D01*
X78734088Y-93564132D01*
X78524857Y-93652491D01*
X78275186Y-93713274D01*
X77943185Y-93753542D01*
X77486964Y-93780354D01*
X77439403Y-93782307D01*
X76973618Y-93792720D01*
X76645136Y-93781957D01*
X76467013Y-93750675D01*
X76440501Y-93732110D01*
X76472502Y-93654895D01*
X76632508Y-93590191D01*
X76641524Y-93588162D01*
X76820293Y-93532848D01*
X76897923Y-93476792D01*
X76898015Y-93475439D01*
X76910643Y-93374864D01*
X76915875Y-93338644D01*
X77406814Y-93338644D01*
X77422182Y-93463799D01*
X77497815Y-93524823D01*
X77678006Y-93544368D01*
X77811651Y-93545667D01*
X78153277Y-93507713D01*
X78464555Y-93411220D01*
X78508198Y-93389742D01*
X78815592Y-93131633D01*
X79035446Y-92741771D01*
X79158458Y-92238711D01*
X79175790Y-92057792D01*
X79156085Y-91561596D01*
X79023898Y-91188594D01*
X78776897Y-90933056D01*
X78699788Y-90888318D01*
X78487519Y-90809928D01*
X78228527Y-90753884D01*
X77985518Y-90729110D01*
X77821200Y-90744529D01*
X77795281Y-90759605D01*
X77767076Y-90855738D01*
X77722508Y-91083850D01*
X77666993Y-91407986D01*
X77605947Y-91792187D01*
X77544785Y-92200499D01*
X77488924Y-92596963D01*
X77443780Y-92945624D01*
X77414769Y-93210524D01*
X77406814Y-93338644D01*
X76915875Y-93338644D01*
X76944541Y-93140175D01*
X76994796Y-92804569D01*
X77056495Y-92401241D01*
X77067915Y-92327385D01*
X77150625Y-91780216D01*
X77204392Y-91377312D01*
X77228902Y-91096024D01*
X77223839Y-90913705D01*
X77188888Y-90807707D01*
X77123734Y-90755383D01*
X77045777Y-90736388D01*
X76914286Y-90684973D01*
X76897115Y-90624667D01*
X76996777Y-90587634D01*
X77232162Y-90560127D01*
X77569215Y-90545242D01*
X77789088Y-90543570D01*
X78425047Y-90581170D01*
G37*
G36*
X81538582Y-90505543D02*
G01*
X81735118Y-90531651D01*
X81805159Y-90579705D01*
X81803393Y-90603500D01*
X81700348Y-90699514D01*
X81583939Y-90736388D01*
X81437165Y-90780300D01*
X81397485Y-90821055D01*
X81384598Y-90920587D01*
X81350345Y-91157332D01*
X81299190Y-91501138D01*
X81235600Y-91921856D01*
X81196669Y-92176897D01*
X80997824Y-93475128D01*
X81198640Y-93566321D01*
X81365560Y-93664349D01*
X81371208Y-93734989D01*
X81213472Y-93779370D01*
X80890242Y-93798622D01*
X80762332Y-93799667D01*
X80449083Y-93789428D01*
X80224492Y-93762023D01*
X80126636Y-93722413D01*
X80125209Y-93716613D01*
X80197057Y-93635346D01*
X80327984Y-93582835D01*
X80420583Y-93546627D01*
X80488814Y-93471489D01*
X80544022Y-93326184D01*
X80597550Y-93079472D01*
X80660742Y-92700115D01*
X80670030Y-92640889D01*
X80735295Y-92207420D01*
X80795960Y-91776714D01*
X80843146Y-91413056D01*
X80860300Y-91263349D01*
X80883535Y-90987010D01*
X80872094Y-90834215D01*
X80815257Y-90760865D01*
X80730629Y-90729942D01*
X80587105Y-90656018D01*
X80549958Y-90590260D01*
X80631942Y-90538487D01*
X80867984Y-90506962D01*
X81194161Y-90497667D01*
X81538582Y-90505543D01*
G37*
G36*
X83209596Y-90507276D02*
G01*
X83377992Y-90538920D01*
X83419259Y-90596819D01*
X83417440Y-90603500D01*
X83314297Y-90699992D01*
X83200813Y-90736019D01*
X83065713Y-90807563D01*
X82854786Y-90977151D01*
X82603454Y-91214847D01*
X82470963Y-91352832D01*
X81922768Y-91942959D01*
X82299241Y-92553813D01*
X82576425Y-92978198D01*
X82825929Y-93311360D01*
X83032036Y-93534422D01*
X83179028Y-93628508D01*
X83195617Y-93630333D01*
X83239628Y-93682628D01*
X83225878Y-93715000D01*
X83093740Y-93787759D01*
X82869227Y-93802705D01*
X82617334Y-93765843D01*
X82403056Y-93683181D01*
X82336374Y-93632794D01*
X82210122Y-93469636D01*
X82050189Y-93213162D01*
X81915341Y-92965212D01*
X81762380Y-92683272D01*
X81617176Y-92448827D01*
X81523277Y-92326503D01*
X81461705Y-92246200D01*
X81462151Y-92156768D01*
X81540157Y-92024092D01*
X81711265Y-91814059D01*
X81807366Y-91702918D01*
X82039709Y-91441815D01*
X82252765Y-91212499D01*
X82402688Y-91062086D01*
X82409335Y-91056044D01*
X82560393Y-90885658D01*
X82567995Y-90781017D01*
X82461329Y-90751667D01*
X82348705Y-90683894D01*
X82333904Y-90624667D01*
X82370428Y-90553820D01*
X82501086Y-90514238D01*
X82757506Y-90498737D01*
X82893157Y-90497667D01*
X83209596Y-90507276D01*
G37*
G36*
X84383019Y-90499910D02*
G01*
X84789118Y-90513946D01*
X85271497Y-90542630D01*
X85612339Y-90585445D01*
X85839726Y-90646838D01*
X85934592Y-90695226D01*
X86149853Y-90920267D01*
X86224197Y-91194143D01*
X86161682Y-91477393D01*
X85966364Y-91730553D01*
X85817413Y-91835088D01*
X85622736Y-91969194D01*
X85568838Y-92064020D01*
X85662325Y-92105563D01*
X85689423Y-92106333D01*
X85899293Y-92183676D01*
X86061002Y-92389258D01*
X86148373Y-92683409D01*
X86156647Y-92814454D01*
X86080484Y-93188052D01*
X85859325Y-93481436D01*
X85504166Y-93681492D01*
X85402849Y-93713434D01*
X85185211Y-93752188D01*
X84881139Y-93779161D01*
X84530350Y-93794290D01*
X84172558Y-93797511D01*
X83847479Y-93788758D01*
X83594827Y-93767968D01*
X83454317Y-93735076D01*
X83438252Y-93716613D01*
X83510091Y-93635306D01*
X83640661Y-93582927D01*
X83723137Y-93551927D01*
X83729398Y-93545667D01*
X84277340Y-93545667D01*
X84742822Y-93545667D01*
X85029956Y-93536410D01*
X85260746Y-93512691D01*
X85345817Y-93493073D01*
X85523494Y-93345428D01*
X85651298Y-93092609D01*
X85703925Y-92796995D01*
X85691882Y-92639954D01*
X85612997Y-92415805D01*
X85446366Y-92273757D01*
X85335949Y-92222182D01*
X85059477Y-92143751D01*
X84790842Y-92121228D01*
X84770914Y-92122776D01*
X84644026Y-92143362D01*
X84553908Y-92195180D01*
X84488149Y-92307246D01*
X84434336Y-92508581D01*
X84380058Y-92828202D01*
X84334341Y-93143500D01*
X84277340Y-93545667D01*
X83729398Y-93545667D01*
X83786810Y-93488262D01*
X83840272Y-93364844D01*
X83892114Y-93154582D01*
X83950926Y-92830384D01*
X84023795Y-92374814D01*
X84090568Y-91937000D01*
X84523309Y-91937000D01*
X84919090Y-91937000D01*
X85217415Y-91910364D01*
X85427254Y-91813169D01*
X85523384Y-91729182D01*
X85699493Y-91448529D01*
X85731898Y-91224161D01*
X85705375Y-91011589D01*
X85604096Y-90872808D01*
X85395490Y-90782673D01*
X85080270Y-90721014D01*
X84909326Y-90697243D01*
X84795348Y-90706990D01*
X84721079Y-90778255D01*
X84669259Y-90939036D01*
X84622631Y-91217334D01*
X84578647Y-91534833D01*
X84523309Y-91937000D01*
X84090568Y-91937000D01*
X84109376Y-91813677D01*
X84166034Y-91397975D01*
X84193891Y-91106305D01*
X84193065Y-90917261D01*
X84163676Y-90809438D01*
X84105846Y-90761432D01*
X84032901Y-90751667D01*
X83891167Y-90694269D01*
X83863001Y-90613791D01*
X83881203Y-90553513D01*
X83954873Y-90516496D01*
X84112612Y-90499656D01*
X84383019Y-90499910D01*
G37*
G36*
X69312290Y-90767724D02*
G01*
X69528324Y-90783177D01*
X69636192Y-90811800D01*
X69656395Y-90855062D01*
X69656374Y-90855127D01*
X69554502Y-90926958D01*
X69333805Y-90977927D01*
X69217364Y-90989399D01*
X68965174Y-91017376D01*
X68822440Y-91083217D01*
X68728727Y-91223207D01*
X68693068Y-91304179D01*
X68586965Y-91607400D01*
X68587838Y-91807382D01*
X68711546Y-91943810D01*
X68973950Y-92056367D01*
X68996735Y-92063985D01*
X69381014Y-92247833D01*
X69607955Y-92490815D01*
X69675737Y-92789243D01*
X69582537Y-93139430D01*
X69555325Y-93194721D01*
X69332518Y-93449328D01*
X69002111Y-93599210D01*
X68737934Y-93630333D01*
X68539782Y-93606073D01*
X68502924Y-93541936D01*
X68627237Y-93450887D01*
X68740070Y-93402950D01*
X68956651Y-93260438D01*
X69095323Y-93052278D01*
X69152512Y-92820483D01*
X69124644Y-92607065D01*
X69008145Y-92454036D01*
X68825171Y-92402667D01*
X68675423Y-92439779D01*
X68538808Y-92573296D01*
X68393889Y-92811031D01*
X68175776Y-93174652D01*
X67972903Y-93406699D01*
X67748368Y-93536762D01*
X67465263Y-93594427D01*
X67411060Y-93598985D01*
X67117886Y-93598739D01*
X66861566Y-93563106D01*
X66788085Y-93540048D01*
X66486970Y-93360037D01*
X66251466Y-93118579D01*
X66121757Y-92861660D01*
X66108486Y-92762260D01*
X66128278Y-92625163D01*
X66413994Y-92625163D01*
X66421255Y-92813853D01*
X66439113Y-92851251D01*
X66623040Y-93058302D01*
X66890720Y-93209776D01*
X67183323Y-93285201D01*
X67442016Y-93264109D01*
X67518679Y-93226870D01*
X67670692Y-93048516D01*
X67778289Y-92784566D01*
X67807483Y-92577566D01*
X67798234Y-92460055D01*
X67744661Y-92395033D01*
X67608023Y-92366995D01*
X67349580Y-92360434D01*
X67264720Y-92360333D01*
X66846631Y-92391920D01*
X66559421Y-92482357D01*
X66413994Y-92625163D01*
X66128278Y-92625163D01*
X66150977Y-92467936D01*
X66298398Y-92259963D01*
X66580671Y-92099951D01*
X66644377Y-92074698D01*
X66843085Y-91992303D01*
X66964616Y-91903163D01*
X66994783Y-91846990D01*
X67330338Y-91846990D01*
X67394891Y-91946280D01*
X67643270Y-92016659D01*
X67877815Y-91933914D01*
X67921898Y-91895537D01*
X68030189Y-91724101D01*
X68107916Y-91499559D01*
X68126369Y-91280954D01*
X68046576Y-91143916D01*
X68013672Y-91117689D01*
X67847747Y-91021583D01*
X67718470Y-91042076D01*
X67560171Y-91186441D01*
X67412046Y-91405218D01*
X67331399Y-91643956D01*
X67330338Y-91846990D01*
X66994783Y-91846990D01*
X67040825Y-91761255D01*
X67103566Y-91520553D01*
X67136845Y-91363170D01*
X67255309Y-90794000D01*
X68473717Y-90770461D01*
X68967589Y-90763975D01*
X69312290Y-90767724D01*
G37*
D11*
X89360316Y-95323406D02*
X89582680Y-95389705D01*
X89780919Y-95495213D01*
X89950865Y-95635847D01*
X90088345Y-95807524D01*
X90189190Y-96006162D01*
X90249229Y-96227678D01*
X90265086Y-96423336D01*
X90265086Y-96570400D01*
X88360086Y-96570400D01*
X88360086Y-96643498D01*
X88383003Y-96766649D01*
X88446441Y-96894172D01*
X88542429Y-97015298D01*
X88662997Y-97119256D01*
X88752174Y-97173239D01*
X88888028Y-97224647D01*
X89048690Y-97249683D01*
X89061658Y-97250596D01*
X89243915Y-97248127D01*
X89397589Y-97211329D01*
X89535281Y-97135614D01*
X89649979Y-97036419D01*
X89785799Y-96900600D01*
X89989054Y-96900600D01*
X90089597Y-96901246D01*
X90148819Y-96905122D01*
X90176196Y-96915133D01*
X90181205Y-96934182D01*
X90175516Y-96957750D01*
X90137203Y-97043398D01*
X90072285Y-97146086D01*
X89992560Y-97249606D01*
X89909830Y-97337746D01*
X89879643Y-97364173D01*
X89680776Y-97493773D01*
X89458088Y-97583237D01*
X89221382Y-97630509D01*
X88980459Y-97633535D01*
X88769143Y-97597004D01*
X88548031Y-97512879D01*
X88353211Y-97389023D01*
X88189611Y-97230554D01*
X88062160Y-97042590D01*
X87975787Y-96830249D01*
X87956630Y-96753299D01*
X87926094Y-96503242D01*
X87939827Y-96263661D01*
X87952008Y-96214800D01*
X88361343Y-96214800D01*
X89084614Y-96214800D01*
X89297200Y-96214528D01*
X89464285Y-96213521D01*
X89591165Y-96211494D01*
X89683137Y-96208158D01*
X89745498Y-96203229D01*
X89783545Y-96196420D01*
X89802574Y-96187444D01*
X89807883Y-96176014D01*
X89807886Y-96175688D01*
X89787509Y-96093758D01*
X89732811Y-95998173D01*
X89653438Y-95900722D01*
X89559034Y-95813195D01*
X89459247Y-95747383D01*
X89456189Y-95745826D01*
X89317133Y-95698277D01*
X89153019Y-95677014D01*
X88982214Y-95681960D01*
X88823084Y-95713039D01*
X88731346Y-95748844D01*
X88584812Y-95850486D01*
X88465935Y-95991797D01*
X88385551Y-96151127D01*
X88361343Y-96214800D01*
X87952008Y-96214800D01*
X87995653Y-96039735D01*
X88091392Y-95836643D01*
X88224865Y-95659563D01*
X88393894Y-95513672D01*
X88506785Y-95445689D01*
X88701389Y-95361746D01*
X88898712Y-95314901D01*
X89117999Y-95300400D01*
X89360316Y-95323406D01*
G36*
X89360316Y-95323406D02*
G01*
X89582680Y-95389705D01*
X89780919Y-95495213D01*
X89950865Y-95635847D01*
X90088345Y-95807524D01*
X90189190Y-96006162D01*
X90249229Y-96227678D01*
X90265086Y-96423336D01*
X90265086Y-96570400D01*
X88360086Y-96570400D01*
X88360086Y-96643498D01*
X88383003Y-96766649D01*
X88446441Y-96894172D01*
X88542429Y-97015298D01*
X88662997Y-97119256D01*
X88752174Y-97173239D01*
X88888028Y-97224647D01*
X89048690Y-97249683D01*
X89061658Y-97250596D01*
X89243915Y-97248127D01*
X89397589Y-97211329D01*
X89535281Y-97135614D01*
X89649979Y-97036419D01*
X89785799Y-96900600D01*
X89989054Y-96900600D01*
X90089597Y-96901246D01*
X90148819Y-96905122D01*
X90176196Y-96915133D01*
X90181205Y-96934182D01*
X90175516Y-96957750D01*
X90137203Y-97043398D01*
X90072285Y-97146086D01*
X89992560Y-97249606D01*
X89909830Y-97337746D01*
X89879643Y-97364173D01*
X89680776Y-97493773D01*
X89458088Y-97583237D01*
X89221382Y-97630509D01*
X88980459Y-97633535D01*
X88769143Y-97597004D01*
X88548031Y-97512879D01*
X88353211Y-97389023D01*
X88189611Y-97230554D01*
X88062160Y-97042590D01*
X87975787Y-96830249D01*
X87956630Y-96753299D01*
X87926094Y-96503242D01*
X87939827Y-96263661D01*
X87952008Y-96214800D01*
X88361343Y-96214800D01*
X89084614Y-96214800D01*
X89297200Y-96214528D01*
X89464285Y-96213521D01*
X89591165Y-96211494D01*
X89683137Y-96208158D01*
X89745498Y-96203229D01*
X89783545Y-96196420D01*
X89802574Y-96187444D01*
X89807883Y-96176014D01*
X89807886Y-96175688D01*
X89787509Y-96093758D01*
X89732811Y-95998173D01*
X89653438Y-95900722D01*
X89559034Y-95813195D01*
X89459247Y-95747383D01*
X89456189Y-95745826D01*
X89317133Y-95698277D01*
X89153019Y-95677014D01*
X88982214Y-95681960D01*
X88823084Y-95713039D01*
X88731346Y-95748844D01*
X88584812Y-95850486D01*
X88465935Y-95991797D01*
X88385551Y-96151127D01*
X88361343Y-96214800D01*
X87952008Y-96214800D01*
X87995653Y-96039735D01*
X88091392Y-95836643D01*
X88224865Y-95659563D01*
X88393894Y-95513672D01*
X88506785Y-95445689D01*
X88701389Y-95361746D01*
X88898712Y-95314901D01*
X89117999Y-95300400D01*
X89360316Y-95323406D01*
G37*
X80185835Y-95320988D02*
X80300534Y-95347102D01*
X80521636Y-95437639D01*
X80713079Y-95564036D01*
X80870008Y-95721988D01*
X80987568Y-95907188D01*
X81022223Y-95987254D01*
X81056250Y-96080731D01*
X81067869Y-96139761D01*
X81050584Y-96172261D01*
X80997898Y-96186149D01*
X80903315Y-96189343D01*
X80856355Y-96189400D01*
X80642425Y-96189399D01*
X80611519Y-96095754D01*
X80544929Y-95969894D01*
X80438424Y-95858503D01*
X80302249Y-95768012D01*
X80146650Y-95704854D01*
X79981871Y-95675461D01*
X79939985Y-95674142D01*
X79757655Y-95696910D01*
X79587351Y-95761221D01*
X79437802Y-95861089D01*
X79317739Y-95990526D01*
X79235891Y-96143547D01*
X79229693Y-96161267D01*
X79196142Y-96319924D01*
X79190359Y-96495402D01*
X79211045Y-96669327D01*
X79256899Y-96823322D01*
X79279961Y-96871531D01*
X79385690Y-97022138D01*
X79520565Y-97134303D01*
X79667888Y-97205915D01*
X79846575Y-97248926D01*
X80026045Y-97248773D01*
X80197858Y-97208785D01*
X80353576Y-97132291D01*
X80484760Y-97022622D01*
X80582970Y-96883106D01*
X80604553Y-96836389D01*
X80651186Y-96722990D01*
X80860736Y-96722895D01*
X80963454Y-96723561D01*
X81025570Y-96727620D01*
X81057281Y-96737992D01*
X81068783Y-96757594D01*
X81070286Y-96782887D01*
X81054761Y-96857902D01*
X81013210Y-96957781D01*
X80953164Y-97069252D01*
X80882155Y-97179041D01*
X80807715Y-97273876D01*
X80768824Y-97314119D01*
X80589050Y-97449131D01*
X80380193Y-97549811D01*
X80153346Y-97612913D01*
X79919604Y-97635194D01*
X79724086Y-97619664D01*
X79530873Y-97568943D01*
X79343237Y-97485877D01*
X79173546Y-97377860D01*
X79034169Y-97252289D01*
X78967275Y-97167165D01*
X78885946Y-97032841D01*
X78830056Y-96907887D01*
X78795477Y-96777138D01*
X78778079Y-96625430D01*
X78773700Y-96456100D01*
X78775205Y-96315194D01*
X78780907Y-96211188D01*
X78792584Y-96130236D01*
X78812016Y-96058494D01*
X78831637Y-96005197D01*
X78937283Y-95805543D01*
X79083548Y-95629026D01*
X79262662Y-95483316D01*
X79466855Y-95376085D01*
X79470086Y-95374802D01*
X79626069Y-95330914D01*
X79810041Y-95306892D01*
X80002973Y-95303372D01*
X80185835Y-95320988D01*
G36*
X80185835Y-95320988D02*
G01*
X80300534Y-95347102D01*
X80521636Y-95437639D01*
X80713079Y-95564036D01*
X80870008Y-95721988D01*
X80987568Y-95907188D01*
X81022223Y-95987254D01*
X81056250Y-96080731D01*
X81067869Y-96139761D01*
X81050584Y-96172261D01*
X80997898Y-96186149D01*
X80903315Y-96189343D01*
X80856355Y-96189400D01*
X80642425Y-96189399D01*
X80611519Y-96095754D01*
X80544929Y-95969894D01*
X80438424Y-95858503D01*
X80302249Y-95768012D01*
X80146650Y-95704854D01*
X79981871Y-95675461D01*
X79939985Y-95674142D01*
X79757655Y-95696910D01*
X79587351Y-95761221D01*
X79437802Y-95861089D01*
X79317739Y-95990526D01*
X79235891Y-96143547D01*
X79229693Y-96161267D01*
X79196142Y-96319924D01*
X79190359Y-96495402D01*
X79211045Y-96669327D01*
X79256899Y-96823322D01*
X79279961Y-96871531D01*
X79385690Y-97022138D01*
X79520565Y-97134303D01*
X79667888Y-97205915D01*
X79846575Y-97248926D01*
X80026045Y-97248773D01*
X80197858Y-97208785D01*
X80353576Y-97132291D01*
X80484760Y-97022622D01*
X80582970Y-96883106D01*
X80604553Y-96836389D01*
X80651186Y-96722990D01*
X80860736Y-96722895D01*
X80963454Y-96723561D01*
X81025570Y-96727620D01*
X81057281Y-96737992D01*
X81068783Y-96757594D01*
X81070286Y-96782887D01*
X81054761Y-96857902D01*
X81013210Y-96957781D01*
X80953164Y-97069252D01*
X80882155Y-97179041D01*
X80807715Y-97273876D01*
X80768824Y-97314119D01*
X80589050Y-97449131D01*
X80380193Y-97549811D01*
X80153346Y-97612913D01*
X79919604Y-97635194D01*
X79724086Y-97619664D01*
X79530873Y-97568943D01*
X79343237Y-97485877D01*
X79173546Y-97377860D01*
X79034169Y-97252289D01*
X78967275Y-97167165D01*
X78885946Y-97032841D01*
X78830056Y-96907887D01*
X78795477Y-96777138D01*
X78778079Y-96625430D01*
X78773700Y-96456100D01*
X78775205Y-96315194D01*
X78780907Y-96211188D01*
X78792584Y-96130236D01*
X78812016Y-96058494D01*
X78831637Y-96005197D01*
X78937283Y-95805543D01*
X79083548Y-95629026D01*
X79262662Y-95483316D01*
X79466855Y-95376085D01*
X79470086Y-95374802D01*
X79626069Y-95330914D01*
X79810041Y-95306892D01*
X80002973Y-95303372D01*
X80185835Y-95320988D01*
G37*
X82568772Y-95306840D02*
X82822226Y-95342111D01*
X83050311Y-95418807D01*
X83249961Y-95534865D01*
X83418111Y-95688222D01*
X83551694Y-95876816D01*
X83616242Y-96011600D01*
X83647804Y-96125705D01*
X83668071Y-96273371D01*
X83676816Y-96438580D01*
X83673811Y-96605313D01*
X83658829Y-96757551D01*
X83631642Y-96879275D01*
X83628691Y-96887900D01*
X83532305Y-97085172D01*
X83393061Y-97261574D01*
X83216465Y-97411769D01*
X83008027Y-97530421D01*
X82933126Y-97561770D01*
X82801107Y-97598019D01*
X82638121Y-97621467D01*
X82462567Y-97631287D01*
X82292846Y-97626650D01*
X82147360Y-97606729D01*
X82114539Y-97598599D01*
X81900639Y-97516401D01*
X81705907Y-97398093D01*
X81538941Y-97250635D01*
X81408342Y-97080986D01*
X81357468Y-96985895D01*
X81319123Y-96883102D01*
X81284937Y-96758876D01*
X81264885Y-96655628D01*
X81257534Y-96514224D01*
X81681860Y-96514224D01*
X81696195Y-96661866D01*
X81716327Y-96743207D01*
X81769580Y-96855941D01*
X81849981Y-96971333D01*
X81943964Y-97072702D01*
X82037960Y-97143365D01*
X82044744Y-97147020D01*
X82241484Y-97223118D01*
X82446475Y-97253463D01*
X82649890Y-97237243D01*
X82762450Y-97206468D01*
X82939730Y-97119347D01*
X83084196Y-96995677D01*
X83191373Y-96839341D01*
X83195806Y-96830466D01*
X83248796Y-96674401D01*
X83270779Y-96497298D01*
X83261425Y-96318017D01*
X83220407Y-96155421D01*
X83208075Y-96125900D01*
X83110744Y-95966906D01*
X82983047Y-95842092D01*
X82832350Y-95751623D01*
X82666022Y-95695666D01*
X82491428Y-95674386D01*
X82315935Y-95687949D01*
X82146910Y-95736522D01*
X81991720Y-95820270D01*
X81857731Y-95939360D01*
X81752751Y-96093101D01*
X81711205Y-96210807D01*
X81687219Y-96357526D01*
X81681860Y-96514224D01*
X81257534Y-96514224D01*
X81252024Y-96408236D01*
X81284436Y-96173693D01*
X81359636Y-95957052D01*
X81475143Y-95763365D01*
X81628473Y-95597687D01*
X81817146Y-95465069D01*
X81861205Y-95441803D01*
X82035491Y-95367053D01*
X82206816Y-95322281D01*
X82392691Y-95304147D01*
X82568772Y-95306840D01*
G36*
X82568772Y-95306840D02*
G01*
X82822226Y-95342111D01*
X83050311Y-95418807D01*
X83249961Y-95534865D01*
X83418111Y-95688222D01*
X83551694Y-95876816D01*
X83616242Y-96011600D01*
X83647804Y-96125705D01*
X83668071Y-96273371D01*
X83676816Y-96438580D01*
X83673811Y-96605313D01*
X83658829Y-96757551D01*
X83631642Y-96879275D01*
X83628691Y-96887900D01*
X83532305Y-97085172D01*
X83393061Y-97261574D01*
X83216465Y-97411769D01*
X83008027Y-97530421D01*
X82933126Y-97561770D01*
X82801107Y-97598019D01*
X82638121Y-97621467D01*
X82462567Y-97631287D01*
X82292846Y-97626650D01*
X82147360Y-97606729D01*
X82114539Y-97598599D01*
X81900639Y-97516401D01*
X81705907Y-97398093D01*
X81538941Y-97250635D01*
X81408342Y-97080986D01*
X81357468Y-96985895D01*
X81319123Y-96883102D01*
X81284937Y-96758876D01*
X81264885Y-96655628D01*
X81257534Y-96514224D01*
X81681860Y-96514224D01*
X81696195Y-96661866D01*
X81716327Y-96743207D01*
X81769580Y-96855941D01*
X81849981Y-96971333D01*
X81943964Y-97072702D01*
X82037960Y-97143365D01*
X82044744Y-97147020D01*
X82241484Y-97223118D01*
X82446475Y-97253463D01*
X82649890Y-97237243D01*
X82762450Y-97206468D01*
X82939730Y-97119347D01*
X83084196Y-96995677D01*
X83191373Y-96839341D01*
X83195806Y-96830466D01*
X83248796Y-96674401D01*
X83270779Y-96497298D01*
X83261425Y-96318017D01*
X83220407Y-96155421D01*
X83208075Y-96125900D01*
X83110744Y-95966906D01*
X82983047Y-95842092D01*
X82832350Y-95751623D01*
X82666022Y-95695666D01*
X82491428Y-95674386D01*
X82315935Y-95687949D01*
X82146910Y-95736522D01*
X81991720Y-95820270D01*
X81857731Y-95939360D01*
X81752751Y-96093101D01*
X81711205Y-96210807D01*
X81687219Y-96357526D01*
X81681860Y-96514224D01*
X81257534Y-96514224D01*
X81252024Y-96408236D01*
X81284436Y-96173693D01*
X81359636Y-95957052D01*
X81475143Y-95763365D01*
X81628473Y-95597687D01*
X81817146Y-95465069D01*
X81861205Y-95441803D01*
X82035491Y-95367053D01*
X82206816Y-95322281D01*
X82392691Y-95304147D01*
X82568772Y-95306840D01*
G37*
X86828277Y-95313791D02*
X86922361Y-95317451D01*
X86992776Y-95326455D01*
X87053087Y-95343181D01*
X87116856Y-95370005D01*
X87171037Y-95396171D01*
X87342084Y-95504513D01*
X87475334Y-95643673D01*
X87572665Y-95816378D01*
X87635954Y-96025354D01*
X87647361Y-96087800D01*
X87654650Y-96158770D01*
X87661189Y-96271525D01*
X87666689Y-96417049D01*
X87670860Y-96586330D01*
X87673413Y-96770353D01*
X87674094Y-96919650D01*
X87674286Y-97586400D01*
X87242486Y-97586400D01*
X87242486Y-96867110D01*
X87241879Y-96638457D01*
X87239886Y-96454758D01*
X87236249Y-96310177D01*
X87230708Y-96198882D01*
X87223005Y-96115037D01*
X87212881Y-96052809D01*
X87204983Y-96021534D01*
X87140223Y-95883307D01*
X87039316Y-95780106D01*
X86903889Y-95712984D01*
X86735566Y-95682999D01*
X86681098Y-95681400D01*
X86518627Y-95691817D01*
X86388648Y-95726694D01*
X86276550Y-95791472D01*
X86196646Y-95861726D01*
X86142459Y-95918731D01*
X86099077Y-95974501D01*
X86065309Y-96035365D01*
X86039965Y-96107652D01*
X86021853Y-96197689D01*
X86009782Y-96311805D01*
X86002563Y-96456327D01*
X85999003Y-96637585D01*
X85997912Y-96861907D01*
X85997886Y-96917910D01*
X85997886Y-97586400D01*
X85566086Y-97586400D01*
X85566086Y-95325800D01*
X85997886Y-95325800D01*
X85997886Y-95583707D01*
X86080150Y-95501442D01*
X86166538Y-95425836D01*
X86257241Y-95372569D01*
X86363264Y-95338282D01*
X86495610Y-95319616D01*
X86665281Y-95313211D01*
X86696960Y-95313100D01*
X86828277Y-95313791D01*
G36*
X86828277Y-95313791D02*
G01*
X86922361Y-95317451D01*
X86992776Y-95326455D01*
X87053087Y-95343181D01*
X87116856Y-95370005D01*
X87171037Y-95396171D01*
X87342084Y-95504513D01*
X87475334Y-95643673D01*
X87572665Y-95816378D01*
X87635954Y-96025354D01*
X87647361Y-96087800D01*
X87654650Y-96158770D01*
X87661189Y-96271525D01*
X87666689Y-96417049D01*
X87670860Y-96586330D01*
X87673413Y-96770353D01*
X87674094Y-96919650D01*
X87674286Y-97586400D01*
X87242486Y-97586400D01*
X87242486Y-96867110D01*
X87241879Y-96638457D01*
X87239886Y-96454758D01*
X87236249Y-96310177D01*
X87230708Y-96198882D01*
X87223005Y-96115037D01*
X87212881Y-96052809D01*
X87204983Y-96021534D01*
X87140223Y-95883307D01*
X87039316Y-95780106D01*
X86903889Y-95712984D01*
X86735566Y-95682999D01*
X86681098Y-95681400D01*
X86518627Y-95691817D01*
X86388648Y-95726694D01*
X86276550Y-95791472D01*
X86196646Y-95861726D01*
X86142459Y-95918731D01*
X86099077Y-95974501D01*
X86065309Y-96035365D01*
X86039965Y-96107652D01*
X86021853Y-96197689D01*
X86009782Y-96311805D01*
X86002563Y-96456327D01*
X85999003Y-96637585D01*
X85997912Y-96861907D01*
X85997886Y-96917910D01*
X85997886Y-97586400D01*
X85566086Y-97586400D01*
X85566086Y-95325800D01*
X85997886Y-95325800D01*
X85997886Y-95583707D01*
X86080150Y-95501442D01*
X86166538Y-95425836D01*
X86257241Y-95372569D01*
X86363264Y-95338282D01*
X86495610Y-95319616D01*
X86665281Y-95313211D01*
X86696960Y-95313100D01*
X86828277Y-95313791D01*
G37*
X85166023Y-95290436D02*
X85312086Y-95306961D01*
X85312086Y-95677729D01*
X85178736Y-95664068D01*
X84994637Y-95669139D01*
X84825238Y-95720922D01*
X84676667Y-95816056D01*
X84555052Y-95951179D01*
X84506175Y-96032869D01*
X84423086Y-96193838D01*
X84423086Y-97586400D01*
X83991286Y-97586400D01*
X83991286Y-95323745D01*
X84200836Y-95331122D01*
X84410386Y-95338500D01*
X84435786Y-95560358D01*
X84486555Y-95503946D01*
X84604732Y-95407357D01*
X84756584Y-95336267D01*
X84929828Y-95294536D01*
X85112176Y-95286025D01*
X85166023Y-95290436D01*
G36*
X85166023Y-95290436D02*
G01*
X85312086Y-95306961D01*
X85312086Y-95677729D01*
X85178736Y-95664068D01*
X84994637Y-95669139D01*
X84825238Y-95720922D01*
X84676667Y-95816056D01*
X84555052Y-95951179D01*
X84506175Y-96032869D01*
X84423086Y-96193838D01*
X84423086Y-97586400D01*
X83991286Y-97586400D01*
X83991286Y-95323745D01*
X84200836Y-95331122D01*
X84410386Y-95338500D01*
X84435786Y-95560358D01*
X84486555Y-95503946D01*
X84604732Y-95407357D01*
X84756584Y-95336267D01*
X84929828Y-95294536D01*
X85112176Y-95286025D01*
X85166023Y-95290436D01*
G37*
M02*
